<svg width="361" height="112" viewBox="0 0 361 112" fill="none" xmlns="http://www.w3.org/2000/svg">
<rect width="361" height="112" fill="black"/>
<path d="M55.501 53.6538H41.8933C41.7472 52.3547 41.0327 51.3317 39.8635 50.7634C38.8567 50.1788 37.6876 50.0327 36.0962 50.0327C33.0597 50.0327 31.6145 50.8933 31.6145 52.5009C31.6145 54.1085 33.7904 55.5374 38.126 56.5605C44.3453 58.1518 48.4049 59.4509 50.2885 60.4739C54.6241 62.796 56.8 66.2709 56.8 70.8989C56.8 75.8191 54.9164 79.5863 51.1491 82.1845C47.528 84.6527 42.6078 85.9518 36.3885 85.9518C30.7376 85.9518 26.1097 84.5066 22.4885 81.6161C19.0298 78.8394 17.1461 75.3644 17 71.3211H30.7538C31.0461 72.7663 31.7606 73.9192 33.0759 74.7961C34.2288 75.5268 35.5441 75.949 37.1355 75.949C41.0489 75.949 43.0625 74.9422 43.0625 72.7663C43.0625 71.1749 40.8865 69.7297 36.5509 68.7067C30.3316 67.1153 26.2721 65.8163 24.3884 64.7933C20.0528 62.4712 17.8769 58.8663 17.8769 54.076C17.8769 49.5942 19.6144 46.1192 23.2355 43.651C26.5644 41.3289 31.0461 40.176 36.697 40.176C42.348 40.176 46.9759 41.4751 50.1586 44.2356C53.1951 46.2654 54.9326 49.4481 55.5172 53.6376L55.501 53.6538Z" fill="white"/>
<path d="M61.4442 84.6365V52.9393H73.0221V57.7134C73.8827 56.2682 75.198 55.1152 76.9355 53.9461C78.9653 52.647 80.9951 52.0625 83.0086 52.0625C88.2211 52.0625 91.6961 53.9461 93.4336 57.8595C96.1779 53.9461 99.799 52.0625 104.427 52.0625C109.055 52.0625 112.091 53.3615 113.975 55.8297C115.713 58.0057 116.573 61.3345 116.573 65.9624V84.7826H103.989V68.4306C103.989 66.1086 103.696 64.3711 103.128 63.3643C102.543 62.3575 101.39 61.9191 99.799 61.9191C96.9086 61.9191 95.3173 64.2412 95.3173 69.0152V84.6527H82.7326V68.4469C82.7326 66.1248 82.4403 64.3873 81.872 63.3805C81.2874 62.3738 80.1345 61.9353 78.5431 61.9353C75.6527 61.9353 74.0613 64.2574 74.0613 69.0315V84.6689H61.4767L61.4442 84.6365Z" fill="white"/>
<path d="M157.542 84.6365H144.519L143.935 81.3076C140.898 84.198 136.839 85.6432 132.064 85.6432C128.882 85.6432 126.138 84.9125 124.108 83.3212C121.786 81.5837 120.779 79.1317 120.779 76.0789C120.779 71.8894 122.809 68.9828 126.706 67.3914C128.297 66.6607 131.918 65.9462 137.553 65.2155C141.466 64.6309 143.48 63.6241 143.48 62.1789C143.48 60.4414 142.181 59.5808 139.42 59.5808C136.66 59.5808 135.231 60.5876 134.939 62.6173H122.776C122.776 55.5212 128.573 51.9001 140.151 51.9001C146.955 51.9001 151.437 53.1991 153.759 55.6674C155.35 57.4048 156.081 60.4414 156.081 65.0693V79.8299C156.081 80.8367 156.227 81.5674 156.373 82.0059C156.519 82.5904 157.104 83.3049 157.818 83.8895V84.6202H157.526L157.542 84.6365ZM137.715 78.271C141.775 78.271 143.642 75.6729 143.22 70.4604C142.36 70.8989 140.898 71.3211 139.031 71.7595C137.147 72.1979 135.848 72.4902 135.263 72.9124C134.257 73.497 133.672 74.3576 133.672 75.6567C133.672 77.3942 135.117 78.2548 137.732 78.2548L137.715 78.271Z" fill="white"/>
<path d="M162.755 84.6365V52.9393H174.187V59.3047H174.333C176.07 54.3845 179.253 51.9163 184.027 51.9163C184.027 51.9163 184.612 51.9163 185.618 52.0625V64.6471C183.881 64.3548 183.02 64.2087 183.02 64.2087C180.422 64.2087 178.392 64.9394 177.093 66.3846C175.794 67.8298 175.21 70.1519 175.21 73.4807V84.4741L162.755 84.6202V84.6365Z" fill="white"/>
<path d="M210.219 75.5105V84.4903C207.183 84.6365 204.861 84.7826 203.123 84.7826C198.203 84.7826 195.166 84.0519 193.721 82.4605C192.422 81.0153 191.838 77.9788 191.838 73.3346V60.0192H187.356V52.7769H191.984V42.9365H204.439V52.7769H210.512V60.0192H204.439V71.451C204.439 73.0423 204.731 74.0491 205.169 74.4875C205.608 75.0721 206.761 75.3482 208.498 75.3482H210.236V75.4943L210.219 75.5105Z" fill="white"/>
<path d="M219.053 40.3384H228.747C229.754 34.2653 231.492 30.2057 233.521 28.0298C234.82 26.7307 236.119 26 237.581 26C239.042 26 240.471 26.5846 241.77 27.7375C244.239 29.9134 246.398 34.1029 247.99 40.1923H257.538L262.458 82.8827L217.153 84.6202L219.037 40.3384H219.053ZM230.339 40.3384H246.691C245.245 34.6875 243.216 30.9364 241.04 28.9067C240.033 27.8999 238.864 27.4614 237.857 27.4614C236.85 27.4614 235.827 28.046 234.82 29.0528C232.791 30.9364 231.199 34.7037 230.339 40.3384V40.3384Z" fill="#004A8F"/>
<path d="M259.275 37.1557L301.251 44.674C298.653 59.2885 295.6 76.3712 293.733 86.65L251.757 79.1317C253.641 68.8528 256.677 51.7702 259.275 37.1557V37.1557Z" fill="#ED1C24"/>
<path d="M334.54 41.6537H325.284C325.722 40.7931 326.291 39.9162 327.021 39.3316C327.752 38.7471 328.613 38.3249 329.49 38.1787C329.782 38.9094 330.35 39.6239 330.935 40.2085L344.104 36.7335C342.513 34.996 341.782 31.521 342.22 28.4845L329.051 33.1124C328.759 34.2653 328.613 35.5806 328.905 36.7335C327.898 37.0258 326.875 37.4642 326.015 38.1787C325.284 38.7633 324.862 39.3316 324.423 40.0624V37.4642C324.423 36.7335 323.839 36.1652 323.124 36.1652H310.101C309.37 36.1652 308.802 36.7497 308.802 37.4642V41.7999H298.815C296.932 41.7999 295.34 43.3912 295.487 45.1287V80.7393C295.487 82.6229 297.078 84.2143 298.962 84.2143H334.572C336.456 84.2143 338.047 82.6229 338.047 80.7393V45.1287C338.047 43.2451 336.456 41.6537 334.572 41.6537H334.54ZM322.377 41.946H310.799V39.4778C310.799 38.8932 311.238 38.6172 311.66 38.6172H321.5C321.939 38.6172 322.361 39.0556 322.361 39.4778V41.946H322.377Z" fill="#004A8F"/>
<path d="M240.325 65.3778H237.727V70.0058H241.348C243.67 70.0058 244.823 69.275 244.823 67.6837C244.823 66.6769 244.385 66.0923 243.524 65.6539C242.94 65.5078 241.787 65.3616 240.341 65.3616L240.325 65.3778ZM240.617 56.6904H237.727V60.8798H241.056C242.94 60.8798 243.8 60.1491 243.8 58.7039C243.8 57.8433 243.508 57.2587 242.793 56.9664C242.501 56.8203 241.64 56.6741 240.617 56.6741V56.6904ZM241.624 75.7866H229.462V50.8933H241.332C247.99 50.8933 251.318 52.9231 251.318 57.1126C251.318 59.4346 250.312 61.1721 248.136 62.4712C249.435 62.7635 250.458 63.478 251.172 64.501C251.903 65.5078 252.325 66.8231 252.325 68.1221C252.325 73.3346 248.85 75.7866 241.608 75.7866H241.624Z" fill="white"/>
<path d="M265.803 64.9557V50.9095H273.906V65.8163C273.906 67.2615 274.198 68.2845 274.637 68.999C275.221 69.8596 276.228 70.298 277.819 70.298C280.417 70.298 281.587 68.7067 281.587 65.6701V50.7634H289.69V64.8095C289.69 68.8691 288.683 71.7595 286.799 73.497C284.915 75.3806 281.879 76.2413 277.673 76.2413C273.468 76.2413 270.723 75.3806 268.84 73.6431C266.81 72.0518 265.803 69.1614 265.803 64.9557V64.9557Z" fill="white"/>
<path d="M320.071 66.6932V75.8028H311.968V66.8231L302.696 50.9095H311.822L316.012 59.4509L320.364 50.9095H329.327L320.071 66.6932Z" fill="white"/>
</svg>
